<?xml version="1.0" encoding="utf-8"?>
<!-- Generator: Adobe Illustrator 25.2.0, SVG Export Plug-In . SVG Version: 6.00 Build 0)  -->
<svg version="1.1" id="Layer_1" xmlns="http://www.w3.org/2000/svg" xmlns:xlink="http://www.w3.org/1999/xlink" x="0px" y="0px"
	 viewBox="0 0 132 124" style="enable-background:new 0 0 132 124;" xml:space="preserve">
<style type="text/css">
	.st0{fill:#EDDD5E;}
	.st1{fill:#BB7C2C;}
</style>
<path class="st0" d="M10.2,85.6"/>
<g>
	<path class="st1" d="M24.9,123.9c-2.5,0-5.1,0-7.6,0h-2.5v-5.3h2.5c5.9,0,21.4,0.2,24.9-0.6c6.9-1.7,12.9-6,16.6-12
		c1.1-1.8,4.1-7.9,4.1-14.3C62.9,79,58.2,70.8,48,66c-3.6-1.6-7.4-2.5-11.3-2.5h-5.5V90c0,0.6-0.5,1.1-1.1,1.1c0,0,0,0,0,0H27
		c-0.6,0-1.1-0.5-1.1-1.1c0,0,0,0,0,0V58.2h10.8c4.7,0,9.3,1,13.6,3C62.3,67,68.2,77,68.1,91.8c0,7.4-3.2,14.4-4.9,17.1
		c-4.5,7.2-11.6,12.4-19.9,14.3C40.6,123.8,33.1,123.9,24.9,123.9z"/>
	<path class="st1" d="M92.6,123.6L90,119c7.9-4.6,10.9-9,10.3-15.5c-0.3-2.8-1.8-5.4-4.4-7.6l0,0c-2.8-2.4-4-2.9-7-4.3
		c-1.7-0.8-3.9-1.8-7-3.5c-7.4-3.9-8.8-7.4-9.3-8.7c0-0.1,0-0.1-0.1-0.1c-3.1-6.4-0.8-15.1,5.1-19.4c2.9-2.1,6.4-3.1,10-2.8
		c7.5,0.4,12.3,5.8,14.2,8.5c0.5,0.7,0.3,1.6-0.3,2c0,0-0.1,0-0.1,0.1l-2.1,1.2c-0.6,0.4-1.5,0.2-1.9-0.4c-1.4-2-4.9-5.8-10.1-6.1
		c-2.3-0.2-4.7,0.5-6.6,1.8c-4.3,3.1-5.2,9.2-3.5,12.9c0.1,0.1,0.1,0.3,0.2,0.4c0.3,0.8,1.2,3,6.9,6c3.1,1.6,5.1,2.6,6.8,3.4
		c3,1.2,5.7,2.9,8.2,5.1h0c3.7,3.1,5.8,7,6.2,11.1C106.6,114.1,99.2,119.8,92.6,123.6z"/>
	<path class="st1" d="M131.5,124h-44c-0.3,0-0.5-0.2-0.5-0.5v-4.3c0-0.3,0.2-0.5,0.5-0.5h38.7c0.3,0,0.5-0.2,0.5-0.5V5.8
		c0-0.3-0.2-0.5-0.5-0.5H5.8c-0.3,0-0.5,0.2-0.5,0.5v112.3c0,0.3,0.2,0.5,0.5,0.5c0,0,0,0,0,0h8.6c0.3,0,0.5,0.2,0.5,0.5v4.3
		c0,0.3-0.2,0.5-0.5,0.5c0,0,0,0,0,0H0.5c-0.3,0-0.5-0.2-0.5-0.5c0,0,0,0,0,0V0.5C0,0.2,0.2,0,0.5,0h131c0.3,0,0.5,0.2,0.5,0.5
		v122.9C132,123.7,131.8,123.9,131.5,124z"/>
</g>
</svg>
