<?xml version="1.0" encoding="utf-8"?>
<!-- Generator: Adobe Illustrator 25.2.0, SVG Export Plug-In . SVG Version: 6.00 Build 0)  -->
<svg version="1.1" id="Layer_1" xmlns="http://www.w3.org/2000/svg" xmlns:xlink="http://www.w3.org/1999/xlink" x="0px" y="0px"
	 viewBox="0 0 207.7 231.3" style="enable-background:new 0 0 207.7 231.3;" xml:space="preserve">
<style type="text/css">
	.st0{fill:#FFFFFF;}
</style>
<g>
	<g>
		<path class="st0" d="M42.5,190.1c-3.8,0-7.6,0-11.4,0h-3.7v-7.9h3.8c8.7,0.1,31.9,0.3,37.1-0.9c10.3-2.5,19.2-8.9,24.8-17.9
			c1.7-2.7,6.1-11.8,6.1-21.4c0.1-19-6.9-31.2-22.1-38.4c-5.3-2.5-11.1-3.7-16.9-3.7h-8.2v39.5c0,0.9-0.7,1.6-1.6,1.6c0,0,0,0,0,0
			h-4.6c-0.9,0-1.6-0.7-1.6-1.6c0,0,0,0,0,0V92.1h16.1c7,0,13.9,1.5,20.2,4.5c18,8.6,26.8,23.5,26.6,45.6c-0.1,11-4.8,21.4-7.3,25.5
			C93,178.4,82.3,186,70,189C65.9,189.9,54.8,190.1,42.5,190.1z"/>
		<path class="st0" d="M143.5,189.6l-3.9-6.8c11.8-6.8,16.3-13.5,15.4-23.1c-0.4-4.1-2.7-8-6.6-11.4l-0.1-0.1
			c-4.1-3.5-6-4.4-10.4-6.4c-2.6-1.2-5.8-2.7-10.5-5.2c-11-5.8-13.1-11-13.9-13c0-0.1-0.1-0.2-0.1-0.2c-4.6-9.6-1.1-22.6,7.6-29
			c4.3-3.1,9.6-4.6,14.9-4.2c11.2,0.5,18.4,8.7,21.2,12.6c0.7,1,0.5,2.3-0.5,3c-0.1,0-0.1,0.1-0.2,0.1l-3.1,1.8
			c-1,0.6-2.2,0.3-2.8-0.6c-2.1-3-7.3-8.7-15-9.1c-3.5-0.3-7,0.7-9.8,2.7c-6.4,4.7-7.8,13.8-5.2,19.3c0.1,0.2,0.2,0.4,0.3,0.7
			c0.5,1.2,1.8,4.5,10.2,8.9c4.6,2.4,7.7,3.8,10.1,5c4.5,1.8,8.6,4.4,12.2,7.6h0.1c5.5,4.7,8.7,10.4,9.3,16.6
			C164.3,175.4,153.3,184,143.5,189.6z"/>
		<path class="st0" d="M201.5,190.1h-65.5c-0.4,0-0.8-0.3-0.8-0.8V183c0-0.4,0.3-0.8,0.8-0.8h57.7c0.4,0,0.8-0.3,0.8-0.8V14
			c0-0.4-0.3-0.7-0.8-0.8H14c-0.4,0-0.8,0.3-0.8,0.8v167.4c0,0.4,0.3,0.7,0.7,0.8c0,0,0,0,0,0h12.8c0.4,0,0.8,0.3,0.8,0.8v6.4
			c0,0.4-0.3,0.8-0.7,0.8c0,0,0,0,0,0H6.1c-0.4,0-0.7-0.3-0.8-0.7c0,0,0,0,0,0V6.1c0-0.4,0.3-0.8,0.8-0.8h195.3
			c0.4,0,0.7,0.3,0.8,0.8v183.3C202.2,189.8,201.9,190.1,201.5,190.1z"/>
	</g>
	<g>
		<path class="st0" d="M5.3,225.4v-28.7h8.5c2.4,0,4.7,0.5,6.7,1.7c2,1.1,3.5,2.8,4.5,4.8c1.1,2.2,1.7,4.7,1.6,7.1v1.4
			c0,2.5-0.5,4.9-1.6,7.2c-1,2-2.6,3.7-4.6,4.8c-2.1,1.1-4.5,1.7-6.9,1.7L5.3,225.4z M10.3,200.8v20.7h3.2c2.3,0.1,4.5-0.8,6-2.4
			c1.4-1.6,2.1-4,2.1-7v-1.6c0-3.1-0.7-5.5-2-7.1c-1.5-1.7-3.6-2.6-5.9-2.5L10.3,200.8z"/>
		<path class="st0" d="M46.6,218.1c0.1-1.1-0.4-2.2-1.3-2.9c-1.5-0.9-3.1-1.6-4.8-2.1c-1.9-0.5-3.8-1.3-5.5-2.3
			c-2.6-1.6-3.9-3.8-3.9-6.4c0-2.2,1-4.4,2.8-5.7c2.1-1.6,4.7-2.4,7.3-2.2c1.8,0,3.7,0.3,5.3,1.1c1.5,0.7,2.8,1.8,3.7,3.1
			c0.8,1.2,1.2,2.6,1.3,4c0,0.3-0.2,0.5-0.5,0.5c0,0,0,0,0,0h-4c-0.3,0-0.5-0.2-0.5-0.4c0-1.2-0.5-2.3-1.4-3.1
			c-1.1-0.9-2.6-1.4-4-1.3c-1.3-0.1-2.7,0.3-3.8,1c-0.9,0.7-1.4,1.8-1.3,2.9c0,1.1,0.5,2.1,1.5,2.7c1.5,0.9,3.1,1.6,4.8,2.1
			c1.9,0.5,3.7,1.3,5.4,2.3c1.2,0.7,2.3,1.7,3,2.9c0.6,1.2,0.9,2.5,0.9,3.8c0.1,2.2-0.9,4.4-2.7,5.7c-2.2,1.5-4.8,2.3-7.5,2.1
			c-2,0-3.9-0.4-5.7-1.1c-1.6-0.7-3-1.8-4.1-3.2c-0.9-1.2-1.4-2.7-1.4-4.2c0-0.3,0.2-0.5,0.5-0.5c0,0,0,0,0,0h4
			c0.3,0,0.5,0.2,0.5,0.4c0,1.3,0.6,2.5,1.6,3.3c1.3,1,3,1.4,4.6,1.3c1.4,0.1,2.8-0.3,3.9-1.1C46.2,220.2,46.7,219.1,46.6,218.1z"/>
		<path class="st0" d="M66,225.4v-28.7h8.5c2.4,0,4.7,0.5,6.7,1.7c2,1.1,3.5,2.8,4.6,4.8c1.1,2.2,1.7,4.7,1.6,7.1v1.4
			c0.1,2.5-0.5,4.9-1.6,7.2c-1,2-2.6,3.7-4.6,4.8c-2.1,1.1-4.5,1.7-6.9,1.7L66,225.4z M71,200.8v20.7h3.2c2.3,0.1,4.5-0.8,6-2.4
			c1.4-1.6,2.1-4,2.1-7v-1.6c0-3.1-0.7-5.5-2-7.1c-1.5-1.7-3.6-2.6-5.9-2.5L71,200.8z"/>
		<path class="st0" d="M108.7,212.6h-11c-0.2,0-0.4,0.2-0.4,0.4l0,0v8.1c0,0.2,0.2,0.4,0.4,0.4h13c0.2,0,0.4,0.2,0.4,0.4l0,0v3.2
			c0,0.2-0.2,0.4-0.4,0.4l0,0h-18c-0.2,0-0.4-0.2-0.4-0.4l0,0v-27.9c0-0.2,0.2-0.4,0.4-0.4l0,0h17.9c0.2,0,0.4,0.2,0.4,0.4l0,0v3.3
			c0,0.2-0.2,0.4-0.4,0.4l0,0H97.7c-0.2,0-0.4,0.2-0.4,0.4l0,0v7.2c0,0.2,0.2,0.4,0.4,0.4l0,0h11c0.2,0,0.4,0.2,0.4,0.4l0,0v3.2
			C109,212.5,108.9,212.6,108.7,212.6z"/>
		<path class="st0" d="M130.1,218.1c0.1-1.1-0.4-2.2-1.3-2.9c-1.5-0.9-3.1-1.6-4.8-2.1c-1.9-0.5-3.8-1.3-5.5-2.3
			c-2.6-1.6-3.9-3.8-3.9-6.4c0-2.2,1-4.4,2.8-5.7c2.1-1.6,4.7-2.4,7.3-2.2c1.8,0,3.7,0.3,5.3,1.1c1.5,0.7,2.8,1.8,3.7,3.1
			c0.8,1.2,1.2,2.6,1.3,4c0,0.3-0.2,0.5-0.5,0.5c0,0,0,0,0,0h-3.9c-0.3,0-0.5-0.2-0.5-0.5c0-1.2-0.5-2.3-1.4-3.1
			c-1.1-0.9-2.6-1.4-4-1.3c-1.3-0.1-2.7,0.3-3.8,1c-0.9,0.7-1.4,1.8-1.3,2.9c0,1.1,0.5,2.1,1.5,2.7c1.5,0.9,3.1,1.6,4.8,2.1
			c1.9,0.5,3.7,1.3,5.4,2.3c1.2,0.7,2.3,1.7,3,2.9c0.7,1.2,1,2.5,0.9,3.8c0.1,2.2-1,4.4-2.8,5.7c-2.2,1.5-4.8,2.3-7.4,2.1
			c-2,0-3.9-0.4-5.7-1.1c-1.6-0.7-3-1.8-4-3.2c-0.9-1.2-1.4-2.7-1.4-4.2c0-0.3,0.2-0.5,0.5-0.5c0,0,0,0,0,0h4c0.3,0,0.5,0.2,0.5,0.5
			c0,1.3,0.6,2.5,1.6,3.3c1.3,1,3,1.4,4.6,1.3c1.4,0.1,2.8-0.3,3.9-1.1C129.7,220.2,130.2,219.1,130.1,218.1z"/>
		<path class="st0" d="M144.2,225.4h-3.9c-0.3,0-0.5-0.2-0.5-0.5v-27.6c0-0.3,0.2-0.5,0.5-0.5h3.9c0.3,0,0.5,0.2,0.5,0.5v27.6
			C144.7,225.2,144.5,225.4,144.2,225.4z"/>
		<path class="st0" d="M164.5,226c-2,0-4-0.4-5.8-1.1c-1.8-0.7-3.4-1.8-4.7-3.1c-1.3-1.3-2.4-2.9-3.2-4.6c-1.5-3.7-1.5-7.8,0-11.4
			c0.8-1.7,1.8-3.3,3.2-4.6c4.2-4.1,10.5-5.3,15.9-3.2c1.3,0.5,2.5,1.2,3.5,2c0.6,0.4,0.7,1.2,0.3,1.8l-0.8,1.3
			c-0.4,0.7-1.3,0.9-1.9,0.5c0,0-0.1,0-0.1-0.1c-0.3-0.2-0.6-0.4-1.4-0.9c-1.5-0.9-3.3-1.4-5.1-1.4c-1.4,0-2.7,0.2-4,0.8
			c-1.2,0.5-2.3,1.2-3.2,2.2c-0.9,0.9-1.6,2-2.1,3.3c-0.5,1.3-0.8,2.6-0.8,4c0,1.4,0.2,2.7,0.8,4c0.5,1.2,1.2,2.3,2.1,3.3
			c0.9,0.9,2,1.7,3.2,2.2c1.3,0.5,2.6,0.8,4,0.8c1,0,1.9-0.1,2.9-0.3c0.8-0.2,1.5-0.5,2.2-0.9c0.1-0.1,0.2-0.2,0.2-0.4v-5.7
			c0-0.2-0.2-0.4-0.4-0.4h-5.8c-0.2,0-0.4-0.2-0.4-0.4c0,0,0,0,0,0v-3c0-0.2,0.2-0.4,0.4-0.4h9.1c0.8,0,1.4,0.6,1.4,1.4v11.2
			c0,0.1-0.1,0.3-0.2,0.4c-1.3,0.9-2.7,1.6-4.2,2C167.9,225.7,166.2,226,164.5,226z"/>
		<path class="st0" d="M201.6,225.4h-3.7c-0.3,0-0.5-0.1-0.7-0.4l-11.9-18.9c-0.1-0.2-0.3-0.2-0.5-0.1c-0.1,0.1-0.2,0.2-0.2,0.3
			v18.3c0,0.4-0.3,0.8-0.8,0.8c0,0,0,0,0,0h-3.4c-0.4,0-0.8-0.4-0.8-0.8v-27c0-0.4,0.4-0.8,0.8-0.8h3.7c0.3,0,0.5,0.1,0.7,0.4
			l12.2,19.4c0.1,0.1,0.2,0.1,0.3,0.1c0.1,0,0.1-0.1,0.1-0.2v-18.9c0-0.4,0.3-0.8,0.8-0.8c0,0,0,0,0,0h3.3c0.4,0,0.8,0.4,0.8,0.8v27
			C202.4,225,202.1,225.4,201.6,225.4C201.6,225.4,201.6,225.4,201.6,225.4z"/>
	</g>
</g>
</svg>
