<svg id="Layer_1" data-name="Layer 1" xmlns="http://www.w3.org/2000/svg" width="207.74" height="231.33" viewBox="0 0 207.74 231.33">
  <g>
    <g>
      <path d="M42.49,190.14c-3.75,0-7.6,0-11.4,0l-3.7,0v-7.87l3.76,0c8.73.07,31.92.26,37.07-.93A40.25,40.25,0,0,0,93,163.46c1.68-2.71,6.05-11.81,6.11-21.36.12-19-6.91-31.18-22.12-38.43A39.56,39.56,0,0,0,60.08,100H51.86v39.53a1.63,1.63,0,0,1-1.63,1.63H45.62A1.63,1.63,0,0,1,44,139.48V92.08H60.08a47.29,47.29,0,0,1,20.25,4.49c18,8.6,26.75,23.51,26.61,45.58-.07,11-4.8,21.45-7.29,25.46A48.19,48.19,0,0,1,70,189C65.91,189.9,54.78,190.14,42.49,190.14Z" style="fill: #bb7c2c"/>
      <path d="M143.48,189.62l-3.92-6.82c11.83-6.8,16.28-13.49,15.37-23.07-.4-4.12-2.67-8-6.56-11.36l-.06-.05c-4.14-3.52-6-4.37-10.39-6.43-2.56-1.19-5.75-2.67-10.49-5.17-11-5.77-13.08-11-13.87-13,0-.08-.06-.16-.09-.22-4.56-9.55-1.14-22.58,7.62-29A22.88,22.88,0,0,1,136,90.27c11.25.54,18.41,8.68,21.23,12.62a2.16,2.16,0,0,1-.67,3.12l-3.07,1.79a2.16,2.16,0,0,1-2.84-.6c-2.14-3-7.26-8.7-15-9.06a15.09,15.09,0,0,0-9.85,2.71c-6.37,4.68-7.81,13.76-5.16,19.3.08.18.17.4.28.67.49,1.23,1.8,4.51,10.22,8.94,4.57,2.4,7.67,3.84,10.15,5a43.13,43.13,0,0,1,12.17,7.57l.06,0c5.48,4.66,8.7,10.4,9.29,16.6C164.34,175.41,153.28,184,143.48,189.62Z" style="fill: #bb7c2c"/>
      <path d="M201.48,190.15H135.94a.76.76,0,0,1-.76-.76V183a.76.76,0,0,1,.76-.76h57.67a.75.75,0,0,0,.75-.75V14a.76.76,0,0,0-.75-.75H14a.75.75,0,0,0-.75.75V181.44a.74.74,0,0,0,.75.75H26.76a.76.76,0,0,1,.76.75v6.37a.75.75,0,0,1-.76.75H6.13a.74.74,0,0,1-.75-.75V6.08a.75.75,0,0,1,.75-.75H201.48a.76.76,0,0,1,.75.75V189.39A.76.76,0,0,1,201.48,190.15Z" style="fill: #bb7c2c"/>
    </g>
    <g>
      <path d="M5.33,225.44V196.79h8.46a13.26,13.26,0,0,1,6.74,1.7,11.41,11.41,0,0,1,4.55,4.8,15.16,15.16,0,0,1,1.62,7.12v1.43A15.23,15.23,0,0,1,25.07,219a11.4,11.4,0,0,1-4.62,4.76,13.93,13.93,0,0,1-6.88,1.67Zm5-24.63v20.66h3.24a7.47,7.47,0,0,0,6-2.45c1.4-1.64,2.11-4,2.14-7v-1.59q0-4.66-2-7.12a7.18,7.18,0,0,0-5.88-2.46Z" style="fill: #bb7c2c"/>
      <path d="M46.63,218.06a3.47,3.47,0,0,0-1.33-2.91,16.17,16.17,0,0,0-4.79-2.07A22.94,22.94,0,0,1,35,210.76q-3.91-2.46-3.92-6.41a7,7,0,0,1,2.83-5.71,11.44,11.44,0,0,1,7.33-2.24,12.45,12.45,0,0,1,5.33,1.1,8.83,8.83,0,0,1,3.68,3.14,8,8,0,0,1,1.32,4,.48.48,0,0,1-.49.5h-4a.48.48,0,0,1-.49-.43,4.34,4.34,0,0,0-1.39-3.08,5.84,5.84,0,0,0-4-1.27,6,6,0,0,0-3.79,1,3.45,3.45,0,0,0-1.35,2.91A3.13,3.13,0,0,0,37.52,207a16.45,16.45,0,0,0,4.8,2.05,22.2,22.2,0,0,1,5.37,2.26,8.56,8.56,0,0,1,3,2.92A7.54,7.54,0,0,1,51.6,218a6.82,6.82,0,0,1-2.74,5.7,11.9,11.9,0,0,1-7.45,2.11,13.94,13.94,0,0,1-5.71-1.15,9.6,9.6,0,0,1-4.06-3.18,7.79,7.79,0,0,1-1.43-4.22.49.49,0,0,1,.49-.5h4a.49.49,0,0,1,.48.45,4.48,4.48,0,0,0,1.6,3.33,7.07,7.07,0,0,0,4.62,1.34,6.16,6.16,0,0,0,3.91-1.05A3.42,3.42,0,0,0,46.63,218.06Z" style="fill: #bb7c2c"/>
      <path d="M66,225.44V196.79h8.46a13.29,13.29,0,0,1,6.74,1.7,11.47,11.47,0,0,1,4.55,4.8,15.16,15.16,0,0,1,1.61,7.12v1.43A15.22,15.22,0,0,1,85.75,219a11.4,11.4,0,0,1-4.62,4.76,14,14,0,0,1-6.88,1.67Zm5-24.63v20.66h3.25a7.49,7.49,0,0,0,6-2.45c1.4-1.64,2.11-4,2.14-7v-1.59q0-4.66-2-7.12a7.18,7.18,0,0,0-5.88-2.46Z" style="fill: #bb7c2c"/>
      <path d="M108.71,212.65h-11a.36.36,0,0,0-.36.36v8.09a.37.37,0,0,0,.36.37h13a.36.36,0,0,1,.36.36v3.25a.36.36,0,0,1-.36.36h-18a.36.36,0,0,1-.36-.36V197.15a.36.36,0,0,1,.36-.36h17.87a.36.36,0,0,1,.36.36v3.3a.36.36,0,0,1-.36.36H97.67a.36.36,0,0,0-.36.36v7.19a.36.36,0,0,0,.36.36h11a.36.36,0,0,1,.36.36v3.21A.36.36,0,0,1,108.71,212.65Z" style="fill: #bb7c2c"/>
      <path d="M130.09,218.06a3.47,3.47,0,0,0-1.33-2.91,16.17,16.17,0,0,0-4.79-2.07,22.94,22.94,0,0,1-5.51-2.32q-3.92-2.46-3.92-6.41a7,7,0,0,1,2.83-5.71,11.44,11.44,0,0,1,7.33-2.24,12.45,12.45,0,0,1,5.33,1.1,8.77,8.77,0,0,1,3.68,3.14,8.1,8.1,0,0,1,1.32,4,.5.5,0,0,1-.51.52h-3.94a.5.5,0,0,1-.51-.46,4.35,4.35,0,0,0-1.39-3.05,5.84,5.84,0,0,0-4-1.27,6,6,0,0,0-3.79,1,3.45,3.45,0,0,0-1.35,2.91A3.13,3.13,0,0,0,121,207a16.45,16.45,0,0,0,4.8,2.05,22.2,22.2,0,0,1,5.37,2.26,8.56,8.56,0,0,1,3,2.92,7.54,7.54,0,0,1,.95,3.84,6.83,6.83,0,0,1-2.75,5.7,11.9,11.9,0,0,1-7.45,2.11,13.94,13.94,0,0,1-5.71-1.15,9.51,9.51,0,0,1-4-3.18,7.79,7.79,0,0,1-1.44-4.19.52.52,0,0,1,.52-.53h4a.51.51,0,0,1,.51.47,4.51,4.51,0,0,0,1.6,3.31,7.09,7.09,0,0,0,4.62,1.34,6.14,6.14,0,0,0,3.91-1.05A3.42,3.42,0,0,0,130.09,218.06Z" style="fill: #bb7c2c"/>
      <path d="M144.16,225.44h-3.9a.53.53,0,0,1-.53-.53V197.32a.53.53,0,0,1,.53-.53h3.9a.53.53,0,0,1,.53.53v27.59A.53.53,0,0,1,144.16,225.44Z" style="fill: #bb7c2c"/>
      <path d="M164.48,226a15.24,15.24,0,0,1-5.8-1.1,14.85,14.85,0,0,1-4.72-3.09,14.46,14.46,0,0,1-3.16-4.61,14.81,14.81,0,0,1,0-11.42,14.42,14.42,0,0,1,3.19-4.62,15.15,15.15,0,0,1,15.94-3.22,15.65,15.65,0,0,1,3.54,2,1.4,1.4,0,0,1,.33,1.84l-.8,1.3a1.4,1.4,0,0,1-2,.43c-.32-.22-.63-.41-1.42-.89a9.71,9.71,0,0,0-5.12-1.35,10.06,10.06,0,0,0-4,.78,9.65,9.65,0,0,0-3.2,2.17,9.93,9.93,0,0,0-2.12,3.26,10.53,10.53,0,0,0-.77,4,10.66,10.66,0,0,0,.75,4,9.8,9.8,0,0,0,2.11,3.26,9.68,9.68,0,0,0,3.2,2.18,10,10,0,0,0,4,.77,11.74,11.74,0,0,0,2.85-.32,9.24,9.24,0,0,0,2.18-.85.44.44,0,0,0,.22-.39v-5.66a.45.45,0,0,0-.44-.45h-5.82a.44.44,0,0,1-.45-.44v-3a.45.45,0,0,1,.45-.44h9.07a1.45,1.45,0,0,1,1.45,1.45v11.24a.44.44,0,0,1-.19.36,14.14,14.14,0,0,1-4.18,2A17.2,17.2,0,0,1,164.48,226Z" style="fill: #bb7c2c"/>
      <path d="M201.6,225.44h-3.72a.81.81,0,0,1-.69-.38l-11.9-18.94a.34.34,0,0,0-.63.18v18.33a.8.8,0,0,1-.8.81h-3.37a.81.81,0,0,1-.81-.81v-27a.81.81,0,0,1,.81-.81h3.73a.8.8,0,0,1,.68.38l12.17,19.39a.22.22,0,0,0,.4-.11V197.6a.8.8,0,0,1,.8-.81h3.33a.81.81,0,0,1,.81.81v27A.81.81,0,0,1,201.6,225.44Z" style="fill: #bb7c2c"/>
    </g>
  </g>
</svg>
